<svg width="512" height="512" xmlns="http://www.w3.org/2000/svg">
 <!-- Created with UXWing SVG Editor - https://uxwing.com/svg-icon-editor/ -->

 <g>
  <title>background</title>
  <rect fill="none" id="canvas_background" height="514" width="514" y="-1" x="-1"/>
  <g display="none" overflow="visible" y="0" x="0" height="100%" width="100%" id="canvasGrid">
   <rect fill="url(#gridpattern)" stroke-width="0" y="0" x="0" height="100%" width="100%"/>
  </g>
 </g>
 <g>
  <title>Layer 1</title>
  <style transform="matrix(2.7594232120196125,0,0,2.7594232120196125,0,0) " type="text/css">.st0{fill-rule:evenodd;clip-rule:evenodd;}</style>
  <g id="svg_7">
   <g transform="matrix(2.7594232120196125,0,0,2.7594232120196125,0,0) " id="svg_5">
    <path fill="#ffffff" id="svg_6" d="m72.657001,68.332018c-1.12,0.04 -1.96,0.27 -2.54,0.66c-0.33,0.22 -0.57,0.5 -0.73,0.84c-0.17,0.37 -0.25,0.83 -0.24,1.35c0.04,1.53 0.85,3.53 2.4,5.83l0.02,0.03l5.03,8c2.02,3.21 4.13,6.48 6.76,8.88c2.53,2.31 5.59,3.87 9.65,3.88c4.39,0.01 7.6,-1.61 10.21,-4.05c2.71,-2.54 4.85,-6.02 6.96,-9.49l5.67,-9.33c1.06,-2.41 1.44,-4.02 1.2,-4.97c-0.14,-0.56 -0.76,-0.84 -1.82,-0.89c-0.22,-0.01 -0.46,-0.01 -0.69,-0.01c-0.25,0.01 -0.52,0.02 -0.79,0.05c-0.15,0.01 -0.3,0 -0.44,-0.03c-0.5,0.03 -1.02,-0.01 -1.55,-0.08l1.94,-8.59c-14.4,2.27 -25.17,-8.42 -40.39,-2.14l1.1,10.12c-0.64,0.04 -1.22,0.02 -1.75,-0.06l0,0l0,0l0,0zm36.82,67.77l0,4.83l-9.93,5.63l0,-5.63l6.39,-2.43l-6.39,-2.4l0,-5.63l9.93,5.63l0,0zm-17.2,12.05l-4.23,0l5.22,-20.34l4.23,0l-5.22,20.34l0,0zm-7.06,-12.05l-6.39,2.4l6.39,2.43l0,5.63l-9.93,-5.63l0,-4.83l9.93,-5.63l0,5.63l0,0zm31.92,-69.58l0,0l0,0c0.21,-8.77 1.82,-17.63 -4.42,-24.82c-4.45,-5.13 -16.03,-9.96 -23.54,-10.37c-3.17,-0.17 -1.96,2.41 -5.09,3.49c-6.46,2.23 -12.11,6.97 -13.96,13.55c-0.3,1.08 -0.51,2.17 -0.62,3.26c-0.21,4.58 -0.09,10.04 0.24,14.38c-0.45,0.17 -0.86,0.38 -1.22,0.62c-0.78,0.52 -1.35,1.2 -1.73,2.01c-0.36,0.77 -0.52,1.65 -0.49,2.62c0.06,2.06 1.01,4.56 2.85,7.31l5.03,8c1.76,2.8 3.6,5.65 5.84,8.06c-0.11,0.32 0.01,-0.03 -0.06,0.18c-0.62,1.88 -1.66,5.02 -2.59,6.78c-6.11,4 -20.1,5.03 -25.53,8.06c-14.82,8.26 -9.47,25.29 -9.65,39.36c0.29,3.14 2.07,4.94 5.57,5.21l3.79,0l-4.15,-31.5c-0.32,-2.45 1.42,-4.46 3.56,-4.46l19.47,0l22.98,0c-0.79,-5.1 -13.98,-10.02 -14.45,-13.86c0.13,-0.09 0.25,-0.21 0.35,-0.35c1.12,-1.56 2.28,-4.81 3.08,-7.18c2.83,2.29 6.23,3.79 10.6,3.8c3.92,0.01 7.05,-1.08 9.68,-2.85c0.26,0.37 0.52,0.76 0.8,1.17c1.25,1.84 2.71,3.97 4.07,5.49c-0.29,4.37 -11.73,4.42 -13.03,13.78l40.74,0c2.14,0 3.89,2.01 3.56,4.46l-4.15,31.5l3.79,0c3.5,-0.27 5.28,-2.07 5.58,-5.21c-0.99,-13.29 3.99,-31.76 -9.65,-39.36c-5.36,-2.99 -19.06,-4.03 -25.29,-7.9c-1.05,-1.3 -2.18,-2.96 -3.18,-4.42c-0.32,-0.48 -0.63,-0.93 -0.92,-1.34l0.15,-0.13c2.99,-2.8 5.24,-6.45 7.45,-10.09l5.73,-9.44c0.03,-0.05 0.06,-0.11 0.09,-0.16l0,0c1.34,-3.05 1.78,-5.29 1.38,-6.87c-0.37,-1.47 -1.26,-2.35 -2.66,-2.78l0,0z" class="st0"/>
   </g>
  </g>
  <style transform="matrix(2.7594232120196125,0,0,2.7594232120196125,0,0) " type="text/css">.st0{fill-rule:evenodd;clip-rule:evenodd;}</style>
  <g id="svg_14">
   <g transform="matrix(2.7594232120196125,0,0,2.7594232120196125,0,0) " id="svg_12">
    <path fill="#ffffff" id="svg_13" d="m72.657001,68.332018c-1.12,0.04 -1.96,0.27 -2.54,0.66c-0.33,0.22 -0.57,0.5 -0.73,0.84c-0.17,0.37 -0.25,0.83 -0.24,1.35c0.04,1.53 0.85,3.53 2.4,5.83l0.02,0.03l5.03,8c2.02,3.21 4.13,6.48 6.76,8.88c2.53,2.31 5.59,3.87 9.65,3.88c4.39,0.01 7.6,-1.61 10.21,-4.05c2.71,-2.54 4.85,-6.02 6.96,-9.49l5.67,-9.33c1.06,-2.41 1.44,-4.02 1.2,-4.97c-0.14,-0.56 -0.76,-0.84 -1.82,-0.89c-0.22,-0.01 -0.46,-0.01 -0.69,-0.01c-0.25,0.01 -0.52,0.02 -0.79,0.05c-0.15,0.01 -0.3,0 -0.44,-0.03c-0.5,0.03 -1.02,-0.01 -1.55,-0.08l1.94,-8.59c-14.4,2.27 -25.17,-8.42 -40.39,-2.14l1.1,10.12c-0.64,0.04 -1.22,0.02 -1.75,-0.06l0,0l0,0l0,0zm36.82,67.77l0,4.83l-9.93,5.63l0,-5.63l6.39,-2.43l-6.39,-2.4l0,-5.63l9.93,5.63l0,0zm-17.2,12.05l-4.23,0l5.22,-20.34l4.23,0l-5.22,20.34l0,0zm-7.06,-12.05l-6.39,2.4l6.39,2.43l0,5.63l-9.93,-5.63l0,-4.83l9.93,-5.63l0,5.63l0,0zm31.92,-69.58l0,0l0,0c0.21,-8.77 1.82,-17.63 -4.42,-24.82c-4.45,-5.13 -16.03,-9.96 -23.54,-10.37c-3.17,-0.17 -1.96,2.41 -5.09,3.49c-6.46,2.23 -12.11,6.97 -13.96,13.55c-0.3,1.08 -0.51,2.17 -0.62,3.26c-0.21,4.58 -0.09,10.04 0.24,14.38c-0.45,0.17 -0.86,0.38 -1.22,0.62c-0.78,0.52 -1.35,1.2 -1.73,2.01c-0.36,0.77 -0.52,1.65 -0.49,2.62c0.06,2.06 1.01,4.56 2.85,7.31l5.03,8c1.76,2.8 3.6,5.65 5.84,8.06c-0.11,0.32 0.01,-0.03 -0.06,0.18c-0.62,1.88 -1.66,5.02 -2.59,6.78c-6.11,4 -20.1,5.03 -25.53,8.06c-14.82,8.26 -9.47,25.29 -9.65,39.36c0.29,3.14 2.07,4.94 5.57,5.21l3.79,0l-4.15,-31.5c-0.32,-2.45 1.42,-4.46 3.56,-4.46l19.47,0l22.98,0c-0.79,-5.1 -13.98,-10.02 -14.45,-13.86c0.13,-0.09 0.25,-0.21 0.35,-0.35c1.12,-1.56 2.28,-4.81 3.08,-7.18c2.83,2.29 6.23,3.79 10.6,3.8c3.92,0.01 7.05,-1.08 9.68,-2.85c0.26,0.37 0.52,0.76 0.8,1.17c1.25,1.84 2.71,3.97 4.07,5.49c-0.29,4.37 -11.73,4.42 -13.03,13.78l40.74,0c2.14,0 3.89,2.01 3.56,4.46l-4.15,31.5l3.79,0c3.5,-0.27 5.28,-2.07 5.58,-5.21c-0.99,-13.29 3.99,-31.76 -9.65,-39.36c-5.36,-2.99 -19.06,-4.03 -25.29,-7.9c-1.05,-1.3 -2.18,-2.96 -3.18,-4.42c-0.32,-0.48 -0.63,-0.93 -0.92,-1.34l0.15,-0.13c2.99,-2.8 5.24,-6.45 7.45,-10.09l5.73,-9.44c0.03,-0.05 0.06,-0.11 0.09,-0.16l0,0c1.34,-3.05 1.78,-5.29 1.38,-6.87c-0.37,-1.47 -1.26,-2.35 -2.66,-2.78l0,0z" class="st0"/>
   </g>
  </g>
 </g>
</svg>